<svg width="273" height="46" fill="none" xmlns="http://www.w3.org/2000/svg"><path d="M21.452 6.937a3.47 3.47 0 10-3.47-3.469 3.47 3.47 0 003.47 3.469zm0 20.82a3.046 3.046 0 10.001-6.092 3.046 3.046 0 00-.001 6.092zm3.47-15.144v3.045a3.47 3.47 0 01-6.94 0v-3.045a3.465 3.465 0 013.47-3.469c1.92 0 3.47 1.55 3.47 3.469zm-12.267 2.963a3.47 3.47 0 10-3.47-3.468 3.47 3.47 0 003.47 3.468zm0 20.82a3.046 3.046 0 10.001-6.091 3.046 3.046 0 00-.001 6.091zm3.47-15.153v3.045a3.47 3.47 0 01-6.94 0v-3.045a3.465 3.465 0 013.47-3.468c1.92 0 3.47 1.55 3.47 3.468zM3.47 24.712A3.47 3.47 0 100 21.243a3.47 3.47 0 003.47 3.469zm0 20.828a3.046 3.046 0 10.002-6.091 3.046 3.046 0 00-.002 6.092zm3.48-15.153v3.045a3.47 3.47 0 01-6.941 0v-3.045a3.465 3.465 0 013.47-3.468c1.92 0 3.47 1.55 3.47 3.468zm23.74-14.351a3.47 3.47 0 10.002-6.939 3.47 3.47 0 00-.001 6.939zm0 20.82a3.046 3.046 0 10.002-6.092 3.046 3.046 0 00-.001 6.092zm-3.479-15.144v3.045a3.47 3.47 0 006.94 0v-3.045a3.465 3.465 0 00-3.47-3.469c-1.92 0-3.47 1.55-3.47 3.469zm12.655 3.468a3.47 3.47 0 10-3.47-3.468 3.47 3.47 0 003.47 3.468zm0 20.82a3.046 3.046 0 10.002-6.092A3.046 3.046 0 0039.866 46zm-3.47-15.153v3.045a3.47 3.47 0 006.94 0v-3.045a3.47 3.47 0 00-6.94 0z" fill="#217DC0"/><path d="M53.738 41.216H50.69v-9.414h3.146c.92 0 1.713.189 2.38.567a3.77 3.77 0 011.523 1.613c.351.703.532 1.54.532 2.513 0 .973-.18 1.82-.532 2.532a3.796 3.796 0 01-1.55 1.621c-.676.379-1.488.568-2.443.568h-.01zm-1.632-1.243h1.55c.722 0 1.317-.135 1.794-.406.478-.27.83-.666 1.064-1.18.234-.513.352-1.144.352-1.892 0-.747-.118-1.369-.352-1.883a2.506 2.506 0 00-1.046-1.17c-.46-.271-1.036-.397-1.721-.397h-1.64v6.937-.01zm9.564 1.397a2.8 2.8 0 01-1.217-.253 2.057 2.057 0 01-.856-.73c-.208-.315-.316-.711-.316-1.17 0-.397.072-.73.235-.983.153-.261.36-.46.622-.613a3.28 3.28 0 01.874-.342c.324-.072.649-.135.982-.171.424-.045.766-.09 1.028-.126.261-.036.45-.081.577-.162.126-.081.18-.19.18-.36v-.037c0-.405-.108-.711-.343-.937-.234-.225-.558-.333-1.01-.333-.45 0-.828.1-1.09.306-.261.208-.45.433-.55.676l-1.288-.297c.153-.433.378-.775.676-1.045.297-.262.64-.46 1.027-.577.388-.117.793-.18 1.217-.18.28 0 .586.036.901.099.316.063.613.19.893.36.279.172.504.424.685.748.18.325.27.739.27 1.261v4.694h-1.343v-.964h-.054a2.04 2.04 0 01-.397.523 2.23 2.23 0 01-.685.432c-.28.117-.613.171-1 .171l-.018.01zm.297-1.109c.379 0 .703-.072.974-.225a1.65 1.65 0 00.622-.595 1.51 1.51 0 00.216-.783v-.91c-.045.045-.144.09-.28.135-.144.045-.297.072-.477.108l-.523.081a5.461 5.461 0 01-.424.054c-.27.036-.513.09-.73.171-.216.081-.396.19-.523.343a.892.892 0 00-.198.594c0 .343.126.595.379.766.252.171.568.261.964.261zm8.004-6.108v1.108h-3.858v-1.108h3.858zm-2.821-1.694h1.379v6.685c0 .27.036.468.117.604a.59.59 0 00.306.27c.127.045.262.072.415.072.108 0 .207 0 .288-.027.082-.027.145-.027.19-.036l.252 1.135a2.23 2.23 0 01-.342.09 3.066 3.066 0 01-.55.054 2.48 2.48 0 01-1.01-.19 1.705 1.705 0 01-.757-.62c-.189-.28-.288-.64-.288-1.064V32.46zm6.093 8.911a2.8 2.8 0 01-1.217-.253 2.057 2.057 0 01-.856-.73c-.207-.315-.316-.711-.316-1.17 0-.397.073-.73.235-.983.153-.261.36-.46.622-.613.261-.153.55-.26.874-.342.325-.072.649-.135.983-.171.423-.045.766-.09 1.027-.126.261-.036.45-.081.577-.162.126-.081.18-.19.18-.36v-.037c0-.405-.108-.711-.342-.937-.235-.225-.56-.333-1.01-.333-.45 0-.83.1-1.09.306-.262.208-.451.433-.55.676l-1.29-.297c.154-.433.38-.775.677-1.045.297-.262.64-.46 1.027-.577.388-.117.793-.18 1.217-.18.28 0 .586.036.901.099.316.063.613.19.893.36.28.172.505.424.685.748.18.325.27.739.27 1.261v4.694h-1.343v-.964h-.054a2.06 2.06 0 01-.396.523c-.18.17-.406.315-.685.432-.28.117-.613.171-1 .171l-.019.01zm.297-1.109c.38 0 .703-.072.974-.225a1.65 1.65 0 00.622-.595 1.51 1.51 0 00.216-.783v-.91c-.045.045-.144.09-.28.135-.144.045-.297.072-.477.108l-.523.081a5.47 5.47 0 01-.423.054c-.27.036-.514.09-.73.171-.217.081-.397.19-.523.343a.892.892 0 00-.198.594c0 .343.126.595.378.766.252.171.568.261.965.261zm9.78.955l-2.614-9.414h1.496l1.839 7.297h.09l1.911-7.297h1.478l1.911 7.297h.09l1.83-7.297h1.496l-2.614 9.414H88.8l-1.983-7.054h-.072l-1.983 7.054H83.32zm11.104-8.153a.85.85 0 01-.613-.243.759.759 0 01-.252-.577.78.78 0 01.252-.586.865.865 0 01.613-.243c.235 0 .442.081.613.243a.765.765 0 01.253.586.746.746 0 01-.253.577.866.866 0 01-.613.243zm-.694 8.153v-7.063h1.38v7.063h-1.38zm6.21-7.063v1.108h-3.857v-1.108h3.858zm-2.82-1.694h1.378v6.685c0 .27.036.468.117.604a.59.59 0 00.307.27c.126.045.261.072.415.072.108 0 .207 0 .288-.027.081-.027.144-.027.19-.036l.252 1.135c-.081.027-.19.063-.343.09a3.066 3.066 0 01-.55.054 2.48 2.48 0 01-1.01-.19 1.706 1.706 0 01-.756-.62c-.19-.28-.289-.64-.289-1.064V32.46zm5.552 4.559v4.198h-1.38v-9.414h1.362v3.504h.09a2.02 2.02 0 01.757-.91c.342-.225.784-.333 1.334-.333.486 0 .91.099 1.271.297.36.198.649.496.847.892.198.396.297.883.297 1.478v4.495h-1.379v-4.324c0-.523-.135-.92-.396-1.208-.271-.288-.64-.432-1.118-.432a1.87 1.87 0 00-.874.207c-.253.135-.46.343-.604.604-.144.261-.217.585-.217.955l.01-.01zm9.338 4.198v-9.414h3.361c.731 0 1.344.135 1.821.396.478.27.838.63 1.082 1.09.243.46.36.982.36 1.559 0 .576-.117 1.099-.36 1.558-.244.46-.604.83-1.082 1.09-.487.27-1.09.406-1.821.406h-2.307v-1.208h2.181c.46 0 .839-.08 1.127-.243a1.48 1.48 0 00.631-.657c.135-.28.198-.595.198-.955s-.072-.676-.198-.946a1.395 1.395 0 00-.64-.649c-.288-.153-.667-.234-1.145-.234h-1.784v8.198h-1.424v.01zm12.339-2.928v-4.135h1.379v7.063h-1.352v-1.225h-.072a2.136 2.136 0 01-.784.937c-.361.243-.803.378-1.334.378-.451 0-.857-.099-1.199-.297-.352-.198-.622-.496-.82-.892-.199-.396-.298-.883-.298-1.468v-4.496h1.379v4.324c0 .478.135.865.397 1.154.27.288.613.432 1.036.432a1.685 1.685 0 001.406-.775c.172-.261.253-.594.253-.99l.009-.01zm2.92 2.928v-7.063h1.325v1.126h.072c.127-.378.361-.676.685-.9a1.962 1.962 0 011.109-.334c.09 0 .189 0 .306.009.118.009.208.018.28.027v1.315a3.337 3.337 0 00-.721-.081c-.325 0-.613.072-.865.207a1.583 1.583 0 00-.604.568 1.562 1.562 0 00-.217.82v4.315h-1.379l.009-.009zm4.66 2.649v-9.712h1.343v1.144h.117c.081-.144.199-.315.343-.513.153-.19.36-.36.622-.505.27-.144.622-.216 1.054-.216a2.74 2.74 0 011.524.432 2.94 2.94 0 011.054 1.244c.253.54.388 1.198.388 1.955 0 .756-.126 1.414-.379 1.963-.252.55-.604.965-1.045 1.253-.442.297-.956.441-1.524.441-.432 0-.784-.072-1.054-.216a2.054 2.054 0 01-.64-.505 3.298 3.298 0 01-.352-.513h-.081v3.748h-1.379.009zm1.352-6.18c0 .495.072.927.217 1.306.144.378.351.666.621.874.271.207.604.315 1.001.315.396 0 .757-.108 1.027-.333.28-.217.487-.514.631-.892.145-.379.217-.802.217-1.27 0-.469-.072-.883-.208-1.253-.144-.37-.351-.666-.622-.874-.279-.216-.621-.324-1.036-.324-.415 0-.739.1-1.01.306-.27.208-.486.496-.621.856-.145.37-.217.793-.217 1.288zm9.311 3.675c-.667 0-1.244-.153-1.731-.46a3.215 3.215 0 01-1.153-1.27c-.271-.549-.406-1.18-.406-1.91s.135-1.369.406-1.918a3.06 3.06 0 011.153-1.28c.496-.306 1.073-.45 1.731-.45.658 0 1.244.153 1.73.45.496.307.875.73 1.154 1.28.271.55.406 1.189.406 1.919s-.135 1.369-.406 1.91c-.27.55-.658.972-1.154 1.27a3.303 3.303 0 01-1.73.46zm0-1.153c.433 0 .784-.117 1.063-.342.28-.226.496-.532.631-.91.136-.379.208-.793.208-1.243 0-.45-.072-.865-.208-1.244a1.95 1.95 0 00-.631-.91c-.279-.234-.639-.342-1.063-.342-.424 0-.793.117-1.073.342a2.084 2.084 0 00-.631.91 3.675 3.675 0 00-.207 1.244c0 .45.072.864.207 1.243.136.378.343.675.631.91.289.225.64.342 1.073.342zm9.816-4.333l-1.244.225a1.591 1.591 0 00-.244-.46 1.191 1.191 0 00-.45-.35 1.65 1.65 0 00-.712-.136c-.388 0-.712.09-.974.261-.261.171-.387.397-.387.667 0 .234.09.423.261.567.171.145.46.262.847.352l1.127.261c.649.153 1.136.378 1.451.694.316.315.478.72.478 1.216 0 .423-.126.802-.37 1.126-.243.325-.586.586-1.018.775-.433.19-.938.28-1.505.28-.794 0-1.434-.172-1.938-.505-.505-.334-.812-.82-.92-1.45l1.334-.199c.081.342.253.604.514.784.261.18.595.261 1.01.261.45 0 .811-.09 1.081-.28.271-.188.406-.423.406-.693a.742.742 0 00-.244-.558c-.162-.154-.414-.262-.748-.343l-1.198-.261c-.658-.153-1.145-.387-1.461-.72-.315-.334-.468-.748-.468-1.244 0-.414.117-.784.351-1.09.235-.315.559-.559.965-.73.414-.18.883-.261 1.415-.261.766 0 1.361.162 1.802.495.442.334.73.766.866 1.325l-.027-.01zm4.38 5.486c-.694 0-1.298-.153-1.794-.45a2.973 2.973 0 01-1.162-1.261c-.271-.541-.406-1.18-.406-1.92 0-.738.135-1.36.406-1.91.27-.549.649-.981 1.144-1.288.487-.306 1.064-.468 1.722-.468.396 0 .784.063 1.163.198.378.135.712.342 1.009.622.298.279.532.648.703 1.099.171.45.262.99.262 1.63v.487h-5.616v-1.027h4.273c0-.36-.073-.685-.226-.964a1.637 1.637 0 00-.622-.667 1.739 1.739 0 00-.928-.243c-.388 0-.721.09-1.01.28a1.859 1.859 0 00-.658.738 2.16 2.16 0 00-.234.982V38c0 .468.081.874.252 1.207.172.333.406.586.704.757.297.171.648.261 1.054.261.261 0 .496-.036.712-.108a1.49 1.49 0 00.92-.9l1.297.233a2.375 2.375 0 01-.558 1.01 2.75 2.75 0 01-1.01.666c-.405.162-.865.234-1.379.234h-.018zM55.18 28.027h-4.498l8.194-23.27h5.21l8.201 23.27H67.79L61.57 9.531h-.18l-6.21 18.496zm.144-9.126H67.6v3.387H55.325v-3.387zm26.157 9.469c-1.74 0-3.236-.38-4.48-1.145a7.596 7.596 0 01-2.875-3.171c-.667-1.351-1.01-2.91-1.01-4.676 0-1.765.343-3.342 1.02-4.693.684-1.36 1.649-2.424 2.892-3.18 1.244-.766 2.723-1.145 4.426-1.145 1.415 0 2.668.261 3.768.775 1.09.523 1.965 1.252 2.623 2.19.648.945 1.018 2.044 1.117 3.297h-3.93c-.162-.838-.531-1.541-1.126-2.109-.595-.567-1.388-.846-2.38-.846-.838 0-1.577.225-2.217.675-.64.45-1.127 1.1-1.487 1.937-.36.838-.532 1.847-.532 3.018 0 1.171.171 2.207.523 3.063.351.856.838 1.505 1.469 1.964.63.46 1.379.685 2.235.685.604 0 1.154-.117 1.632-.342a3.258 3.258 0 001.207-1.01c.325-.44.55-.972.667-1.603h3.93c-.099 1.234-.46 2.324-1.09 3.28-.631.954-1.488 1.693-2.57 2.224-1.08.532-2.352.802-3.82.802l.008.01zm10.095-.343V4.757h4.11v23.27h-4.11zm3.75-5.478v-4.963h.649l6.273-7.01h4.804l-7.715 8.586h-.857l-3.163 3.387h.009zm7.21 5.478l-5.687-7.937 2.776-2.9 7.833 10.837h-4.922zm13.484.343c-1.748 0-3.262-.37-4.533-1.1-1.271-.73-2.245-1.765-2.93-3.117-.685-1.342-1.018-2.928-1.018-4.756 0-1.83.342-3.37 1.027-4.73.685-1.36 1.65-2.424 2.885-3.18 1.234-.766 2.686-1.145 4.353-1.145a9.07 9.07 0 013.056.514 7.083 7.083 0 012.55 1.595c.74.72 1.316 1.63 1.749 2.747.433 1.117.64 2.433.64 3.955v1.262h-14.313V17.64h10.365a4.39 4.39 0 00-.514-2.108 3.666 3.666 0 00-1.388-1.46c-.595-.351-1.289-.531-2.073-.531-.838 0-1.577.207-2.217.603a4.21 4.21 0 00-1.487 1.595 4.588 4.588 0 00-.541 2.153v2.423c0 1.018.189 1.883.559 2.604.369.72.892 1.28 1.559 1.658.667.378 1.451.576 2.344.576.594 0 1.144-.08 1.622-.252a3.577 3.577 0 001.262-.757c.36-.333.622-.748.811-1.234l3.84.432a5.946 5.946 0 01-1.379 2.65c-.676.756-1.542 1.332-2.596 1.747-1.055.414-2.263.621-3.615.621l-.018.01zm10.474-.343v-17.45h3.993v2.91h.18c.316-1.01.865-1.784 1.641-2.334.775-.55 1.667-.82 2.668-.82.225 0 .486.01.766.027.288.018.522.045.712.081v3.784c-.172-.063-.451-.117-.821-.162a9.08 9.08 0 00-1.081-.072c-.748 0-1.424.162-2.019.486a3.635 3.635 0 00-1.406 1.334c-.343.567-.514 1.225-.514 1.964v10.261h-4.11l-.009-.009zm14.277 0h-4.498l8.194-23.27h5.209l8.203 23.27h-4.498l-6.219-18.496h-.181l-6.21 18.496zm.144-9.126h12.277v3.387h-12.277v-3.387zm23.201-1.099v10.225h-4.11v-17.45h3.93v2.963h.207a4.976 4.976 0 011.929-2.324c.883-.567 1.974-.865 3.281-.865 1.208 0 2.253.261 3.154.775.902.514 1.596 1.261 2.092 2.234.495.973.739 2.162.73 3.559v11.108h-4.11V17.549c0-1.162-.298-2.08-.902-2.738-.604-.658-1.433-.991-2.497-.991-.721 0-1.361.153-1.91.468a3.28 3.28 0 00-1.307 1.36c-.316.595-.469 1.307-.469 2.145l-.018.009zm19.649 10.576c-1.109 0-2.1-.198-2.983-.594a4.831 4.831 0 01-2.092-1.766c-.513-.775-.766-1.739-.766-2.883 0-.982.181-1.802.55-2.441a4.23 4.23 0 011.487-1.55c.631-.387 1.343-.675 2.137-.883a19.463 19.463 0 012.46-.441 77.036 77.036 0 002.488-.288c.631-.09 1.1-.226 1.388-.406.288-.18.442-.477.442-.865v-.072c0-.856-.253-1.522-.757-1.99-.505-.47-1.235-.703-2.191-.703-1.009 0-1.802.216-2.388.657-.586.442-.983.955-1.19 1.559l-3.84-.55c.307-1.063.802-1.946 1.496-2.667.694-.72 1.551-1.252 2.56-1.612 1.01-.36 2.118-.54 3.344-.54.838 0 1.677.098 2.515.297a7.152 7.152 0 012.28.973 5.068 5.068 0 011.668 1.838c.423.774.631 1.738.631 2.9v11.676h-3.957v-2.396h-.135a5.094 5.094 0 01-1.055 1.36c-.451.424-1.018.757-1.694 1.009-.676.252-1.47.378-2.38.378h-.018zm1.073-3.018c.829 0 1.541-.162 2.145-.495.604-.333 1.072-.766 1.406-1.315a3.38 3.38 0 00.496-1.784v-2.054c-.127.108-.343.207-.649.297-.307.09-.649.171-1.028.234-.378.072-.757.126-1.127.18-.369.055-.694.1-.964.136a7.117 7.117 0 00-1.649.405c-.487.19-.866.45-1.145.793-.28.333-.424.775-.424 1.297 0 .757.28 1.333.829 1.712.55.387 1.262.576 2.119.576l-.009.018zm15.647-20.603v23.27h-4.11V4.757h4.11zm6.012 29.811a8.286 8.286 0 01-1.551-.136 6.57 6.57 0 01-1.126-.297l.955-3.207c.595.171 1.136.261 1.605.252.468 0 .883-.153 1.243-.441.361-.28.667-.757.92-1.415l.351-.946-6.327-17.81h4.362l4.02 13.18h.181l4.038-13.18h4.371l-6.985 19.558c-.325.928-.757 1.72-1.298 2.378a5.35 5.35 0 01-1.974 1.523c-.775.351-1.704.532-2.776.532l-.009.009zm24.345-23.992v3.18H220.81v-3.18h10.032zm-7.562-4.18h4.11v16.379c0 .55.081.973.252 1.27.171.297.397.486.676.595.28.108.595.162.929.162.261 0 .495-.018.712-.054.216-.036.378-.072.495-.1l.694 3.217a9.602 9.602 0 01-.937.252c-.406.09-.901.144-1.487.162-1.028.027-1.956-.126-2.785-.468a4.226 4.226 0 01-1.956-1.604c-.478-.72-.721-1.64-.712-2.73V6.414l.009-.018zm14.349 4.181h-4.11v17.45h4.11v-17.45zm11.077 17.793c-1.739 0-3.235-.38-4.479-1.145a7.595 7.595 0 01-2.875-3.171c-.667-1.351-1.01-2.91-1.01-4.676 0-1.765.343-3.342 1.019-4.693.685-1.36 1.649-2.424 2.893-3.18 1.244-.766 2.722-1.145 4.425-1.145 1.416 0 2.668.261 3.768.775 1.091.523 1.965 1.252 2.623 2.19.649.945 1.018 2.044 1.118 3.297h-3.93c-.162-.838-.532-1.541-1.127-2.109-.595-.567-1.388-.846-2.379-.846-.839 0-1.578.225-2.218.675-.64.45-1.126 1.1-1.487 1.937-.36.838-.532 1.847-.532 3.018 0 1.171.172 2.207.523 3.063.352.856.838 1.505 1.469 1.964.631.46 1.379.685 2.236.685.603 0 1.153-.117 1.631-.342a3.26 3.26 0 001.208-1.01c.324-.44.55-.972.667-1.603h3.93c-.1 1.234-.46 2.324-1.091 3.28-.631.954-1.487 1.693-2.569 2.224-1.081.532-2.352.802-3.822.802l.009.01zm23.895-13.18l-3.75.405a3.115 3.115 0 00-.549-1.073 2.85 2.85 0 00-1.055-.81c-.442-.208-.973-.307-1.613-.307-.857 0-1.578.19-2.155.559-.576.37-.865.856-.856 1.441 0 .505.18.92.559 1.235.379.315 1.018.576 1.902.783l2.974.64c1.65.36 2.885.919 3.687 1.694.802.774 1.217 1.783 1.226 3.036 0 1.099-.325 2.063-.965 2.9-.631.838-1.505 1.487-2.632 1.965-1.117.468-2.406.702-3.867.702-2.136 0-3.857-.45-5.155-1.342-1.307-.901-2.082-2.153-2.326-3.757l4.011-.387c.181.784.568 1.378 1.163 1.784.595.405 1.361.603 2.307.603.947 0 1.767-.198 2.362-.603.595-.406.892-.901.892-1.487 0-.495-.189-.91-.577-1.234-.378-.325-.973-.577-1.775-.748l-2.975-.622c-1.676-.35-2.911-.936-3.713-1.765-.802-.83-1.199-1.883-1.19-3.153 0-1.072.289-2.01.883-2.802.595-.793 1.425-1.406 2.488-1.838 1.064-.433 2.289-.658 3.687-.658 2.046 0 3.659.433 4.84 1.307 1.18.873 1.911 2.045 2.19 3.531h-.018zM237.746 3.982v4.216h-4.344l4.344-4.216z" fill="#fff"/></svg>